<?xml version="1.0" standalone="no"?>
<!DOCTYPE svg PUBLIC "-//W3C//DTD SVG 20010904//EN"
 "http://www.w3.org/TR/2001/REC-SVG-20010904/DTD/svg10.dtd">
<svg version="1.0" xmlns="http://www.w3.org/2000/svg"
 width="696.000000pt" height="696.000000pt" viewBox="0 0 696.000000 696.000000"
 preserveAspectRatio="xMidYMid meet">
<metadata>
Created by potrace 1.11, written by Peter Selinger 2001-2013
</metadata>
<g transform="translate(0.000000,696.000000) scale(0.100000,-0.100000)"
fill="#000000" stroke="none">
<path d="M3386 6624 c-59 -32 -117 -107 -164 -209 -24 -54 -35 -99 -47 -195
-9 -69 -18 -131 -21 -139 -3 -11 -19 -12 -72 -7 -164 16 -489 -29 -647 -89
-33 -13 -71 -26 -85 -30 -35 -11 -123 -60 -205 -114 -38 -25 -73 -47 -77 -49
-3 -2 -26 23 -49 55 -69 94 -227 250 -288 285 -49 29 -65 33 -131 33 -63 0
-80 -4 -108 -23 -39 -28 -72 -97 -72 -150 0 -41 26 -141 41 -157 5 -5 9 -17 9
-27 0 -10 14 -47 30 -81 17 -35 30 -69 30 -74 0 -6 9 -21 19 -35 11 -13 23
-36 26 -51 4 -14 15 -33 26 -43 10 -9 19 -22 19 -29 0 -6 11 -22 25 -35 31
-29 31 -46 3 -75 -35 -33 -97 -108 -126 -151 -14 -22 -30 -42 -35 -45 -5 -4
-14 -15 -20 -26 -7 -11 -24 -38 -38 -59 -14 -21 -39 -60 -55 -86 -27 -43 -31
-46 -51 -35 -12 7 -51 29 -87 49 -85 48 -140 62 -229 56 -61 -4 -80 -10 -123
-39 -81 -53 -99 -87 -99 -184 0 -73 3 -88 34 -146 18 -35 42 -75 53 -89 31
-40 159 -170 194 -197 32 -24 32 -25 18 -59 -8 -18 -21 -58 -28 -86 -8 -29
-23 -84 -34 -123 -25 -90 -67 -280 -82 -370 -6 -38 -18 -101 -25 -140 -7 -38
-18 -128 -25 -200 -6 -71 -15 -159 -18 -195 l-7 -65 -75 -6 c-42 -4 -85 -11
-95 -17 -11 -5 -39 -16 -63 -23 -24 -7 -46 -18 -50 -24 -4 -7 -16 -17 -28 -23
-11 -6 -33 -36 -48 -67 -25 -49 -28 -63 -24 -123 6 -86 36 -139 124 -222 70
-65 144 -107 209 -118 l39 -7 28 -155 c14 -85 34 -177 43 -205 27 -85 100
-399 124 -532 l8 -43 -43 0 c-24 0 -76 5 -116 11 -106 16 -137 5 -167 -54
l-24 -48 19 -61 c10 -33 31 -80 46 -103 28 -43 140 -125 170 -125 8 0 18 -3
22 -7 22 -22 108 -43 176 -43 l75 0 53 -74 c28 -41 52 -77 52 -80 0 -3 21 -35
46 -71 92 -132 287 -305 409 -364 28 -14 104 -44 170 -67 66 -23 164 -58 218
-78 94 -34 210 -63 362 -89 100 -17 1830 -17 1930 0 152 26 268 55 362 89 54
20 152 55 218 78 155 54 203 79 295 146 126 93 293 274 330 356 3 7 28 44 55
83 l50 71 75 0 c68 0 154 21 176 43 4 4 15 7 24 7 24 0 121 68 154 107 36 43
55 93 62 161 4 46 1 63 -14 88 -25 39 -65 48 -158 34 -38 -5 -90 -10 -115 -10
l-46 0 8 43 c26 144 98 455 129 552 10 33 24 94 30 135 7 41 18 104 24 140 13
65 13 65 52 72 64 11 139 54 208 118 88 83 118 136 124 222 4 60 1 74 -24 123
-15 31 -37 61 -48 67 -12 6 -24 16 -28 23 -4 6 -26 17 -50 24 -24 7 -52 18
-63 23 -10 6 -53 13 -95 17 l-75 6 -8 80 c-38 393 -77 627 -149 890 -11 39
-26 94 -34 123 -7 28 -20 68 -28 86 -14 34 -14 35 18 59 35 27 163 157 194
197 11 14 35 54 53 89 31 58 34 73 34 146 0 97 -18 130 -99 185 -50 34 -53 35
-152 35 -97 0 -103 -1 -174 -39 -41 -21 -87 -48 -102 -59 -15 -11 -29 -19 -32
-16 -2 2 -23 36 -46 74 -24 39 -52 79 -62 91 -10 11 -18 25 -18 32 0 6 -6 15
-13 19 -8 4 -25 25 -39 47 -29 43 -91 118 -125 151 -29 29 -29 46 2 75 14 13
25 29 25 35 0 7 9 20 19 29 11 10 22 29 26 43 3 15 15 38 26 51 10 14 19 29
19 35 0 5 14 39 30 74 17 34 30 69 30 76 0 8 7 28 16 45 8 17 20 58 26 90 15
81 -9 161 -60 200 -31 24 -44 27 -111 27 -66 0 -82 -4 -126 -30 -57 -34 -195
-164 -258 -243 -23 -30 -51 -64 -62 -77 l-20 -24 -85 55 c-95 61 -163 98 -200
109 -14 4 -52 17 -85 30 -158 60 -483 105 -647 89 -53 -5 -69 -4 -72 7 -3 8
-12 70 -21 139 -12 96 -23 141 -47 195 -47 104 -107 178 -166 209 -41 21 -166
21 -206 0z m169 -1204 c31 -11 87 -23 124 -26 36 -4 71 -11 77 -16 7 -5 15
-30 19 -56 4 -26 42 -227 86 -447 130 -653 183 -1043 218 -1595 21 -324 9
-807 -29 -1175 -19 -191 -29 -228 -77 -289 -17 -21 -31 -28 -56 -28 -35 0
-117 44 -117 63 0 6 -7 17 -15 25 -8 9 -15 33 -15 54 0 21 -4 42 -10 45 -5 3
-10 28 -10 55 0 27 -5 61 -11 77 -7 15 -14 82 -16 148 -3 66 -9 124 -14 129
-5 6 -9 78 -9 160 -1 112 -4 157 -15 176 -10 18 -14 62 -15 163 0 84 -4 137
-10 137 -6 0 -10 43 -10 109 0 82 -3 111 -14 120 -10 9 -16 42 -20 109 -7 142
-20 255 -30 270 -10 17 -24 105 -35 222 -4 47 -13 98 -20 113 -6 16 -11 57
-11 92 0 35 -4 67 -10 70 -5 3 -10 35 -10 70 0 35 -4 66 -9 70 -5 3 -12 31
-16 63 -3 31 -10 66 -15 77 -5 11 -11 38 -14 60 -6 52 -26 145 -37 170 -4 11
-10 36 -12 55 -3 19 -14 68 -26 107 -11 40 -21 84 -21 97 0 14 -4 28 -10 31
-5 3 -10 18 -10 32 0 14 -7 48 -16 77 -30 95 -34 112 -34 142 0 16 -6 38 -14
49 -7 11 -16 44 -19 73 -5 45 -3 55 15 72 11 10 42 22 67 26 25 4 69 15 96 25
64 23 62 23 130 -1z m746 -64 c240 -73 590 -425 782 -786 212 -398 333 -902
367 -1529 16 -286 14 -343 -10 -369 -12 -12 -25 -22 -29 -22 -18 0 -141 172
-141 197 0 5 -9 18 -19 27 -11 10 -23 31 -26 46 -3 15 -15 36 -25 45 -10 9
-22 31 -26 49 -4 17 -15 41 -25 54 -10 13 -21 37 -24 55 -4 18 -16 52 -27 76
-11 25 -22 61 -25 80 -4 20 -9 38 -12 41 -11 9 -41 104 -41 128 0 12 -4 30 -9
40 -23 43 -41 92 -41 110 0 12 -4 24 -10 27 -5 3 -10 18 -10 33 0 15 -7 36
-15 46 -8 11 -15 30 -15 42 0 13 -4 26 -10 29 -5 3 -10 19 -10 34 0 16 -7 34
-15 41 -8 7 -15 21 -15 31 0 10 -4 21 -10 24 -5 3 -10 15 -10 25 0 20 -30 83
-42 88 -5 2 -8 14 -8 27 0 12 -7 28 -15 35 -8 7 -15 18 -15 25 0 21 -174 357
-204 395 -7 8 -18 29 -26 45 -8 17 -18 32 -21 35 -4 3 -17 28 -29 55 -12 28
-37 82 -55 121 -18 40 -41 98 -51 130 -48 164 -117 379 -134 420 -19 42 -19
64 -2 64 4 0 28 -6 53 -14z"/>
</g>
</svg>
